<svg width="475" height="569" viewBox="0 0 475 569" fill="none" xmlns="http://www.w3.org/2000/svg">
<g filter="url(#filter0_d)">
<path fill-rule="evenodd" clip-rule="evenodd" d="M80.7072 330.859C87.2273 330.859 92.5816 335.903 93.0928 342.407C98.6903 413.391 155.457 470.632 226.759 476.25C233.255 476.755 238.284 482.123 238.284 488.646V555.069C238.284 562.365 232.325 567.975 225.051 567.577C105.017 560.917 8.53224 464.31 1.88757 344.117C1.48241 336.832 7.08611 330.859 14.3728 330.859H80.7072ZM80.7092 93.7767C87.2291 93.7767 92.5835 98.8198 93.0946 105.323C98.9851 180.372 161.854 239.616 238.286 239.616C364.391 239.616 467.789 338.862 474.677 463.444C475.075 470.628 469.371 476.701 462.185 476.701H395.851C389.332 476.701 383.983 471.659 383.472 465.155C377.575 390.107 314.713 330.861 238.286 330.861C112.181 330.861 8.7772 231.616 1.88944 107.034C1.49051 99.8496 7.19396 93.7767 14.3747 93.7767H80.7092ZM238.284 13.2957C238.284 5.99932 244.249 0.388161 251.525 0.78762C371.558 7.44735 468.029 104.06 474.675 224.247C475.081 231.538 469.477 237.505 462.189 237.505H395.868C389.347 237.505 383.993 232.461 383.482 225.951C377.903 154.579 321.025 97.7062 249.822 92.1201C243.32 91.6083 238.284 86.2406 238.284 79.7119V13.2957Z" fill="#6DD5C2"/>
<path d="M226.72 476.748L226.721 476.748C232.959 477.234 237.784 482.387 237.784 488.646V555.069C237.784 562.077 232.067 567.46 225.078 567.078C105.3 560.432 9.01744 464.029 2.38681 344.089L1.88757 344.117L2.3868 344.089C1.99743 337.088 7.37586 331.359 14.3728 331.359H80.7072C86.9612 331.359 92.1032 336.197 92.5944 342.446C98.2111 413.674 155.171 471.111 226.72 476.748ZM2.38868 107.006L2.38867 107.006C2.00551 100.106 7.48359 94.2767 14.3747 94.2767H80.7092C86.963 94.2767 92.1051 99.1139 92.5961 105.363C98.5068 180.668 161.59 240.116 238.286 240.116C364.124 240.116 467.305 339.153 474.178 463.471C474.56 470.372 469.082 476.201 462.185 476.201H395.851C389.598 476.201 384.462 471.365 383.971 465.116C378.054 389.811 314.977 330.361 238.286 330.361C112.449 330.361 9.26191 231.325 2.38868 107.006ZM238.784 13.2957C238.784 6.28795 244.506 0.903196 251.497 1.28685C371.275 7.93243 467.544 104.342 474.176 224.275C474.566 231.281 469.187 237.005 462.189 237.005H395.868C389.614 237.005 384.471 232.167 383.98 225.912C378.382 154.295 321.31 97.227 249.861 91.6216C243.616 91.13 238.784 85.9758 238.784 79.7119V13.2957Z" stroke="black"/>
<path d="M226.72 476.748L226.721 476.748C232.959 477.234 237.784 482.387 237.784 488.646V555.069C237.784 562.077 232.067 567.46 225.078 567.078C105.3 560.432 9.01744 464.029 2.38681 344.089L1.88757 344.117L2.3868 344.089C1.99743 337.088 7.37586 331.359 14.3728 331.359H80.7072C86.9612 331.359 92.1032 336.197 92.5944 342.446C98.2111 413.674 155.171 471.111 226.72 476.748ZM2.38868 107.006L2.38867 107.006C2.00551 100.106 7.48359 94.2767 14.3747 94.2767H80.7092C86.963 94.2767 92.1051 99.1139 92.5961 105.363C98.5068 180.668 161.59 240.116 238.286 240.116C364.124 240.116 467.305 339.153 474.178 463.471C474.56 470.372 469.082 476.201 462.185 476.201H395.851C389.598 476.201 384.462 471.365 383.971 465.116C378.054 389.811 314.977 330.361 238.286 330.361C112.449 330.361 9.26191 231.325 2.38868 107.006ZM238.784 13.2957C238.784 6.28795 244.506 0.903196 251.497 1.28685C371.275 7.93243 467.544 104.342 474.176 224.275C474.566 231.281 469.187 237.005 462.189 237.005H395.868C389.614 237.005 384.471 232.167 383.98 225.912C378.382 154.295 321.31 97.227 249.861 91.6216C243.616 91.13 238.784 85.9758 238.784 79.7119V13.2957Z" stroke="url(#paint0_linear)"/>
<path d="M226.72 476.748L226.721 476.748C232.959 477.234 237.784 482.387 237.784 488.646V555.069C237.784 562.077 232.067 567.46 225.078 567.078C105.3 560.432 9.01744 464.029 2.38681 344.089L1.88757 344.117L2.3868 344.089C1.99743 337.088 7.37586 331.359 14.3728 331.359H80.7072C86.9612 331.359 92.1032 336.197 92.5944 342.446C98.2111 413.674 155.171 471.111 226.72 476.748ZM2.38868 107.006L2.38867 107.006C2.00551 100.106 7.48359 94.2767 14.3747 94.2767H80.7092C86.963 94.2767 92.1051 99.1139 92.5961 105.363C98.5068 180.668 161.59 240.116 238.286 240.116C364.124 240.116 467.305 339.153 474.178 463.471C474.56 470.372 469.082 476.201 462.185 476.201H395.851C389.598 476.201 384.462 471.365 383.971 465.116C378.054 389.811 314.977 330.361 238.286 330.361C112.449 330.361 9.26191 231.325 2.38868 107.006ZM238.784 13.2957C238.784 6.28795 244.506 0.903196 251.497 1.28685C371.275 7.93243 467.544 104.342 474.176 224.275C474.566 231.281 469.187 237.005 462.189 237.005H395.868C389.614 237.005 384.471 232.167 383.98 225.912C378.382 154.295 321.31 97.227 249.861 91.6216C243.616 91.13 238.784 85.9758 238.784 79.7119V13.2957Z" stroke="url(#paint1_linear)"/>
<path d="M226.72 476.748L226.721 476.748C232.959 477.234 237.784 482.387 237.784 488.646V555.069C237.784 562.077 232.067 567.46 225.078 567.078C105.3 560.432 9.01744 464.029 2.38681 344.089L1.88757 344.117L2.3868 344.089C1.99743 337.088 7.37586 331.359 14.3728 331.359H80.7072C86.9612 331.359 92.1032 336.197 92.5944 342.446C98.2111 413.674 155.171 471.111 226.72 476.748ZM2.38868 107.006L2.38867 107.006C2.00551 100.106 7.48359 94.2767 14.3747 94.2767H80.7092C86.963 94.2767 92.1051 99.1139 92.5961 105.363C98.5068 180.668 161.59 240.116 238.286 240.116C364.124 240.116 467.305 339.153 474.178 463.471C474.56 470.372 469.082 476.201 462.185 476.201H395.851C389.598 476.201 384.462 471.365 383.971 465.116C378.054 389.811 314.977 330.361 238.286 330.361C112.449 330.361 9.26191 231.325 2.38868 107.006ZM238.784 13.2957C238.784 6.28795 244.506 0.903196 251.497 1.28685C371.275 7.93243 467.544 104.342 474.176 224.275C474.566 231.281 469.187 237.005 462.189 237.005H395.868C389.614 237.005 384.471 232.167 383.98 225.912C378.382 154.295 321.31 97.227 249.861 91.6216C243.616 91.13 238.784 85.9758 238.784 79.7119V13.2957Z" stroke="url(#paint2_linear)"/>
</g>
<defs>
<filter id="filter0_d" x="-2.13309" y="0.767548" width="480.83" height="574.829" filterUnits="userSpaceOnUse" color-interpolation-filters="sRGB">
<feFlood flood-opacity="0" result="BackgroundImageFix"/>
<feColorMatrix in="SourceAlpha" type="matrix" values="0 0 0 0 0 0 0 0 0 0 0 0 0 0 0 0 0 0 127 0"/>
<feOffset dy="4"/>
<feGaussianBlur stdDeviation="2"/>
<feColorMatrix type="matrix" values="0 0 0 0 0 0 0 0 0 0 0 0 0 0 0 0 0 0 0.25 0"/>
<feBlend mode="normal" in2="BackgroundImageFix" result="effect1_dropShadow"/>
<feBlend mode="normal" in="SourceGraphic" in2="effect1_dropShadow" result="shape"/>
</filter>
<linearGradient id="paint0_linear" x1="238.282" y1="0.767548" x2="238.282" y2="567.597" gradientUnits="userSpaceOnUse">
<stop stop-color="white"/>
<stop offset="1" stop-color="white" stop-opacity="0"/>
</linearGradient>
<linearGradient id="paint1_linear" x1="238.282" y1="0.767548" x2="238.282" y2="567.597" gradientUnits="userSpaceOnUse">
<stop stop-color="white"/>
<stop offset="1" stop-color="white" stop-opacity="0"/>
</linearGradient>
<linearGradient id="paint2_linear" x1="238.282" y1="0.767548" x2="238.282" y2="567.597" gradientUnits="userSpaceOnUse">
<stop stop-color="white"/>
<stop offset="1" stop-color="white" stop-opacity="0"/>
</linearGradient>
</defs>
</svg>
